# AST/ASF file generated using VICON BodyLanguage
# -----------------------------------------------
:version 1.10
:name VICON
:units
  mass 1.0
  length 0.45
  angle deg
:documentation
   .ast/.asf automatically generated from VICON data using
   VICON BodyBuilder and BodyLanguage model FoxedUp or BRILLIANT.MOD
:root
   order TX TY TZ RX RY RZ
   axis XYZ
   position 0 0 0  
   orientation 0 0 0 
:bonedata
  begin
     id 1 
     name lhipjoint
     direction 0.547975 -0.797114 0.253638 
     length 2.36201 
     axis 0 0 0  XYZ
  end
  begin
     id 2 
     name lfemur
     direction 0.34202 -0.939693 0  
     length 7.69075  
     axis 0 0 20  XYZ
    dof rx ry rz
    limits (-160.0 20.0)
           (-70.0 70.0)
           (-60.0 70.0)
  end
  begin
     id 3 
     name ltibia
     direction 0.34202 -0.939693 0   
     length 7.91399   
     axis 0 0 20   XYZ
    dof rx
    limits (-10.0 170.0)
  end
  begin
     id 4 
     name lfoot
     direction 0.0705293 -0.193778 0.978507   
     length 2.13618   
     axis -90 7.62852e-016 20   XYZ
    dof rx rz
    limits (-45.0 90.0)
           (-70.0 20.0)
  end
  begin
     id 5 
     name ltoes
     direction 1.53592e-011 -4.21925e-011 1   
     length 1.07518   
     axis -90 7.62852e-016 20   XYZ
    dof rx
    limits (-90.0 20.0)
  end
  begin
     id 6 
     name rhipjoint
     direction -0.57 -0.782963 0.249136   
     length 2.4047  
     axis 0 0 0  XYZ 
  end
  begin
     id 7 
     name rfemur
     direction -0.34202 -0.939693 0   
     length 7.51486   
     axis 0 0 -20   XYZ
    dof rx ry rz
    limits (-160.0 20.0)
           (-70.0 70.0)
           (-70.0 60.0)
  end
  begin
     id 8 
     name rtibia
     direction -0.34202 -0.939693 0   
     length 8.08317   
     axis 0 0 -20   XYZ
    dof rx
    limits (-10.0 170.0)
 end
 begin
     id 9 
     name rfoot
     direction -0.104954 -0.281256 0.953876   
     length 2.30343  
     axis -90 -7.62852e-016 -20   XYZ
    dof rx rz
    limits (-45.0 90.0)
           (-20.0 70.0)
  end
  begin
     id 10 
     name rtoes
     direction -1.53556e-011 -4.21922e-011 1   
     length 1.14803   
     axis -90 -7.62852e-016 -20   XYZ
    dof rx
    limits (-90.0 20.0)
  end
  begin
     id 11 
     name lowerback
     direction -0.0152855 0.99353 -0.11254   
     length 2.05311   
     axis 0 0 0   XYZ
    dof rx ry rz
    limits (-20.0 45.0)
           (-30.0 30.0)
           (-30.0 30.0)
  end
  begin
     id 12 
     name upperback
     direction -0.00157509 0.999443 -0.033332   
     length 2.06353   
     axis 0 0 0   XYZ
    dof rx ry rz
    limits (-20.0 45.0)
           (-30.0 30.0)
           (-30.0 30.0)
  end
  begin
     id 13 
     name thorax
     direction 0.00577788 0.999804 0.0189484   
     length 2.08472   
     axis 0 0 0   XYZ
    dof rx ry rz
    limits (-20.0 45.0)
           (-30.0 30.0)
           (-30.0 30.0)
  end
  begin
     id 14 
     name lowerneck
     direction -1.09301e-005 0.994719 0.10264   
     length 1.76249   
     axis 0 0 0   XYZ
    dof rx ry rz
    limits (-20.0 45.0)
           (-30.0 30.0)
           (-30.0 30.0)
  end
  begin
     id 15 
     name upperneck
     direction 0.0495018 0.988526 -0.142706   
     length 1.77897   
     axis 0 0 0   XYZ
    dof rx ry rz
    limits (-20.0 45.0)
           (-30.0 30.0)
           (-30.0 30.0)
  end
  begin
     id 16
     name head
     direction 0.0142736 0.998114 -0.0597101  
     length 1.78934  
     axis 0 0 0   XYZ
    dof rx ry rz
    limits (-20.0 45.0)
           (-30.0 30.0)
           (-30.0 30.0)
  end
  begin
     id 17 
     name lclavicle
     direction 0.918111 0.396107 -0.0130883  
     length 3.37276  
     axis 0 0 0   XYZ
    dof ry rz
    limits (-20.0 10.0)
           (0.0 20.0)
  end
  begin
     id 18 
     name lhumerus
     direction 1 -4.48975e-011 -3.26108e-027   
     length 5.34298   
     axis 180 -30 -90   XYZ
    dof rx ry rz
    limits (-60.0 90.0)
           (-90.0 90.0)
           (-90.0 90.0)
  end
  begin
     id 19
     name lradius
     direction 1 -4.48964e-011 -8.84413e-028   
     length 3.67262   
     axis 180 -30 -90   XYZ
    dof rx
    limits (-10.0 170.0)
  end
  begin
     id 20
     name lwrist
     direction 1 -4.48991e-011 -1.24264e-027   
     length 1.83631   
     axis -2.17013e-015 90 90   XYZ
    dof ry
    limits (-180.0 0.0)
 end
  begin
     id 21 
     name lhand
     direction 1 -4.48855e-011 -2.48528e-027   
     length 0.599298   
     axis 1.58582e-015 90 90   XYZ
    dof rx rz
    limits (-90.0 90.0)
           (-45.0 45.0)
  end
  begin
     id 22 
     name lfingers
     direction 1 -4.48811e-011 -4.97056e-027   
     length 0.48317   
     axis 3.17164e-015 90 90   XYZ
    dof rx
    limits (0.0 90.0)
  end
  begin
     id 23
     name lthumb
     direction 0.707107 -6.34882e-011 0.707107   
     length 0.693738   
     axis -90 45 2.85299e-015   XYZ
    dof rx rz
    limits (-45.0 45.0)
           (-45.0 45.0)
  end
  begin
     id 24 
     name rclavicle
     direction -0.920511 0.384752 -0.0680135   
     length 3.43787  
     axis 0 0 0   XYZ 
    dof ry rz
    limits (-10.0 20.0)
           (-20.0 0.0)
  end
  begin
     id 25 
     name rhumerus
     direction -0.999976 -0.00330524 0.00603274  
     length 5.5498   
     axis 180 30 90   XYZ
    dof rx ry rz
    limits (-90.0 60.0)
           (-90.0 90.0)
           (-90.0 90.0)
  end
  begin
     id 26 
     name rradius
     direction -1 -4.48967e-011 8.62438e-027   
     length 3.69401   
     axis 180 30 90   XYZ
    dof rx
    limits (-10.0 170.0)
  end
  begin
     id 27 
     name rwrist
     direction -1 -4.4897e-011 9.54866e-027   
     length 1.84701   
     axis -7.69462e-015 -90 -90   XYZ
    dof ry
    limits (-180.0 0.0)
  end
  begin
     id 28
     name rhand
     direction -1 -4.48982e-011 1.90973e-026   
     length 0.638113   
     axis -1.21857e-014 -90 -90   XYZ
    dof rx rz
    limits (-90.0 90.0)
           (-45.0 45.0)
  end
  begin
     id 29
     name rfingers
     direction -1 -4.48936e-011 3.81946e-026   
     length 0.514463   
     axis -2.43714e-014 -90 -90   XYZ
    dof rx
    limits (0.0 90.0)
  end
  begin
     id 30
     name rthumb
     direction -0.707107 -6.34942e-011 0.707107   
     length 0.738669   
     axis -90 -45 -2.85299e-015   XYZ
    dof rx rz
    limits (-45.0 45.0)
           (-45.0 45.0)
  end
:hierarchy
  begin
    root lhipjoint rhipjoint lowerback
    lhipjoint lfemur
    lfemur ltibia
    ltibia lfoot
    lfoot ltoes
    rhipjoint rfemur
    rfemur rtibia
    rtibia rfoot
    rfoot rtoes
    lowerback upperback
    upperback thorax
    thorax lowerneck lclavicle rclavicle
    lowerneck upperneck
    upperneck head
    lclavicle lhumerus
    lhumerus lradius
    lradius lwrist
    lwrist lhand lthumb
    lhand lfingers
    rclavicle rhumerus
    rhumerus rradius
    rradius rwrist
    rwrist rhand rthumb
    rhand rfingers
  end

#!OML:ASF F:\twosubjects\two\Thursday\Session 1\Rory.ASF
:FULLY-SPECIFIED
:DEGREES
65
root 0.224963 17.8769 -5.53778 -1.15171 -7.78109 -1.6791
lowerback 6.56175 1.69283 -4.0865
upperback 3.75766 2.0146 -0.600786
thorax 0.0837752 0.95011 1.54214
lowerneck -2.16769 14.6121 9.73004
upperneck 24.3418 22.721 -12.7271
head 10.8282 10.3365 -3.4082
rclavicle -5.36719e-015 1.74931e-014
rhumerus -30.1676 -9.76815 -79.6796
rradius 38.637
rwrist 14.694
rhand -15.506 25.7166
rfingers 7.12502
rthumb 10.6767 -3.99214
lclavicle -5.36719e-015 1.74931e-014
lhumerus -14.2901 12.9764 81.3081
lradius 26.6235
lwrist -16.1473
lhand -13.9189 31.323
lfingers 7.12502
lthumb 12.2073 60.9468
rfemur -19.2706 11.5894 8.64159
rtibia 21.4144
rfoot -6.24181 -9.44087
rtoes -24.5354
lfemur -9.95595 -5.95571 -14.4444
ltibia 34.7917
lfoot -21.9719 1.5391
ltoes 4.76559
66
root 0.126336 17.8673 -5.40254 -1.1093 -7.32039 -1.70781
lowerback 6.35854 1.65324 -3.94163
upperback 3.56707 1.97623 -0.595866
thorax 0.00559365 0.937314 1.47144
lowerneck -1.98203 14.5804 9.69963
upperneck 24.5382 22.6619 -12.4824
head 10.8208 10.333 -3.34581
rclavicle 4.00551e-014 -5.56597e-015
rhumerus -30.8078 -9.62143 -79.5234
rradius 38.0322
rwrist 15.1571
rhand -15.0093 25.9499
rfingers 7.12502
rthumb 11.1558 -3.73352
lclavicle 4.00551e-014 -5.56597e-015
lhumerus -14.773 12.9537 81.1691
lradius 27.1774
lwrist -16.5043
lhand -13.4927 31.6567
lfingers 7.12502
lthumb 12.6182 61.2556
rfemur -19.0068 10.8857 9.02522
rtibia 21.8287
rfoot -4.46078 -7.77332
rtoes -16.4091
lfemur -9.55294 -5.74075 -14.1883
ltibia 34.7038
lfoot -22.0617 1.768
ltoes 0.760683
67
root 0.0203357 17.8545 -5.26892 -1.11511 -6.9579 -1.23612
lowerback 6.06011 1.63828 -4.41843
upperback 3.49183 1.94527 -0.686242
thorax 0.0845417 0.915993 1.65395
lowerneck -1.82345 14.5817 9.44158
upperneck 24.3906 22.6153 -12.2714
head 10.6662 10.3269 -3.26285
rclavicle -8.54774e-015 3.97569e-015
rhumerus -31.1199 -9.74306 -79.3722
rradius 37.4029
rwrist 15.8881
rhand -14.1036 26.137
rfingers 7.12502
rthumb 12.0292 -3.49732
lclavicle -8.54774e-015 3.97569e-015
lhumerus -15.0758 13.0986 81.0581
lradius 27.87
lwrist -16.4405
lhand -13.0117 31.6699
lfingers 7.12502
lthumb 13.082 61.2396
rfemur -18.9961 10.3241 8.82241
rtibia 22.599
rfoot -4.00795 -5.88604
rtoes -17.4759
lfemur -9.14465 -5.57072 -14.4555
ltibia 34.6916
lfoot -22.1378 1.79941
ltoes -2.1187
68
root -0.0790525 17.8626 -5.14675 -1.10822 -6.37985 -0.293125
lowerback 5.84236 1.61978 -5.30115
upperback 3.42857 1.88735 -0.928069
thorax 0.127863 0.877312 1.90634
lowerneck -1.38319 14.5851 9.46503
upperneck 23.9485 22.6078 -12.4132
head 10.4398 10.3591 -3.35583
rclavicle 1.09332e-014 -1.11319e-014
rhumerus -31.3474 -9.98656 -79.2315
rradius 36.8744
rwrist 16.7505
rhand -13.6161 25.8667
rfingers 7.12502
rthumb 12.4993 -3.73946
lclavicle 1.09332e-014 -1.11319e-014
lhumerus -15.0856 12.128 81.0955
lradius 28.1969
lwrist -15.0592
lhand -13.4704 30.9754
lfingers 7.12502
lthumb 12.6398 60.5729
rfemur -18.9476 9.81336 8.07567
rtibia 23.4026
rfoot -4.60718 -5.35797
rtoes -16.1194
lfemur -8.92492 -5.81886 -15.3033
ltibia 34.8686
lfoot -22.1292 1.63026
ltoes -3.13371
69
root -0.169905 17.8899 -5.03535 -1.20378 -5.70081 0.158096
lowerback 5.9491 1.58625 -5.59605
upperback 3.36116 1.8182 -1.01259
thorax -0.00090144 0.844068 1.98427
lowerneck -0.850137 14.5563 9.90465
upperneck 23.6513 22.7064 -13.1057
head 10.3949 10.4258 -3.67813
rclavicle 1.32192e-014 -1.98785e-014
rhumerus -31.5889 -9.99225 -79.0795
rradius 36.2451
rwrist 17.2979
rhand -13.9167 25.8828
rfingers 7.12502
rthumb 12.2094 -3.74089
lclavicle 1.32192e-014 -1.98785e-014
lhumerus -15.098 11.0666 81.2877
lradius 28.3243
lwrist -13.9616
lhand -14.1673 29.99
lfingers 7.12502
lthumb 11.9678 59.6279
rfemur -18.5679 9.20251 7.9593
rtibia 24.2009
rfoot -5.61888 -5.91007
rtoes -17.616
lfemur -8.94621 -6.24257 -15.6612
ltibia 35.4515
lfoot -21.7774 1.60951
ltoes -3.31491
70
root -0.256404 17.9174 -4.92215 -1.65194 -5.21492 -0.613538
lowerback 6.43719 1.53227 -4.61412
upperback 3.48452 1.77336 -0.720063
thorax -0.125441 0.832725 1.72974
lowerneck -1.05662 14.5792 9.80245
upperneck 23.8908 22.8458 -13.306
head 10.5581 10.4447 -3.69094
rclavicle -1.43125e-014 1.59028e-015
rhumerus -31.5091 -10.0724 -78.8619
rradius 35.2816
rwrist 18.0293
rhand -14.3556 26.033
rfingers 7.12502
rthumb 11.7862 -3.6154
lclavicle -1.43125e-014 1.59028e-015
lhumerus -15.0524 10.4887 81.461
lradius 28.6219
lwrist -14.181
lhand -12.7661 31.1685
lfingers 7.12502
lthumb 13.3186 60.7229
rfemur -17.6626 8.59036 9.31119
rtibia 24.8976
rfoot -6.33505 -5.96347
rtoes -17.8178
lfemur -8.75099 -6.55886 -14.7154
ltibia 36.4326
lfoot -21.1726 2.1503
ltoes -4.28102
71
root -0.336372 17.913 -4.8131 -2.16585 -4.83741 -1.5985
lowerback 7.06581 1.47319 -3.43222
upperback 3.62539 1.73886 -0.373488
thorax -0.30643 0.828717 1.41443
lowerneck -1.39141 14.6166 9.41375
upperneck 24.1302 22.9117 -13.1089
head 10.6427 10.4326 -3.53226
rclavicle 8.05078e-015 -9.54166e-015
rhumerus -31.2559 -10.4318 -78.5478
rradius 34.162
rwrist 19.3468
rhand -14.7951 25.9596
rfingers 7.12502
rthumb 11.3624 -3.71255
lclavicle 8.05078e-015 -9.54166e-015
lhumerus -14.9902 9.12158 81.7262
lradius 28.69
lwrist -12.1064
lhand -13.1007 30.7994
lfingers 7.12502
lthumb 12.9961 60.3746
rfemur -16.8039 7.89121 10.8249
rtibia 25.4731
rfoot -6.81768 -5.2609
rtoes -15.88
lfemur -8.56569 -6.81877 -13.576
ltibia 37.8998
lfoot -20.8705 2.56401
ltoes -5.2101
72
root -0.413116 17.9066 -4.70579 -2.35784 -4.36375 -1.67664
lowerback 7.35138 1.40963 -3.29142
upperback 3.59711 1.65237 -0.25766
thorax -0.489058 0.789448 1.45428
lowerneck -0.923842 14.6457 9.50136
upperneck 23.7638 22.9911 -13.4118
head 10.4833 10.4965 -3.67522
rclavicle -7.85199e-015 -1.35174e-014
rhumerus -31.1629 -10.5778 -78.2174
rradius 33.1767
rwrist 20.4797
rhand -15.2341 26.1077
rfingers 7.12502
rthumb 10.939 -3.58731
lclavicle -7.85199e-015 -1.35174e-014
lhumerus -15.5893 10.3375 82.0193
lradius 29.9547
lwrist -13.2821
lhand -12.0515 31.6025
lfingers 7.12502
lthumb 14.0074 61.1106
rfemur -16.2871 6.84075 11.1964
rtibia 25.7703
rfoot -7.3878 -4.45352
rtoes -13.9492
lfemur -8.79769 -7.13096 -13.4589
ltibia 39.6301
lfoot -20.6835 2.60171
ltoes -5.53573
73
root -0.491276 17.8917 -4.59005 -2.53194 -3.97421 -2.43028
lowerback 7.52278 1.31347 -2.59683
upperback 3.63861 1.56981 0.120649
thorax -0.530831 0.753374 1.45783
lowerneck -0.663999 14.7263 9.66571
upperneck 23.6105 23.1984 -13.8175
head 10.4867 10.5954 -3.82283
rclavicle 1.19271e-014 -9.93923e-015
rhumerus -30.9502 -10.5167 -77.8685
rradius 32.1284
rwrist 21.3397
rhand -15.173 26.2773
rfingers 7.12502
rthumb 10.9979 -3.41462
lclavicle 1.19271e-014 -9.93923e-015
lhumerus -15.9167 11.0386 82.3961
lradius 30.5389
lwrist -14.0474
lhand -11.3447 32.0773
lfingers 7.12502
lthumb 14.6884 61.537
rfemur -15.6815 5.78772 12.3493
rtibia 26.1102
rfoot -7.98807 -3.86398
rtoes -13.0763
lfemur -9.12766 -7.0499 -12.6112
ltibia 41.5516
lfoot -19.9026 3.24834
ltoes -10.7124
74
root -0.566605 17.8987 -4.47494 -2.72031 -3.59934 -4.07961
lowerback 7.77866 1.18777 -0.980663
upperback 3.72947 1.51576 0.734369
thorax -0.553815 0.739262 1.18309
lowerneck -1.07554 14.8107 9.63087
upperneck 23.9993 23.388 -13.8183
head 10.7338 10.639 -3.74919
rclavicle -7.85199e-015 9.54166e-015
rhumerus -30.5822 -10.8103 -77.481
rradius 30.932
rwrist 22.4667
rhand -15.4692 26.1072
rfingers 7.12502
rthumb 10.7122 -3.59972
lclavicle -7.85199e-015 9.54166e-015
lhumerus -16.0875 11.2712 82.8548
lradius 30.9801
lwrist -14.2885
lhand -10.9588 32.8178
lfingers 7.12502
lthumb 15.0602 62.25
rfemur -14.9782 5.14245 14.5109
rtibia 26.5014
rfoot -8.62363 -3.63213
rtoes -13.7549
lfemur -9.51752 -6.75702 -10.7495
ltibia 43.4175
lfoot -18.5079 3.93276
ltoes -15.3549
